<?xml version="1.0" encoding="UTF-8" standalone="no"?>
<!-- Created with Inkscape (http://www.inkscape.org/) -->

<svg
		xmlns:dc="http://purl.org/dc/elements/1.1/"
		xmlns:cc="http://creativecommons.org/ns#"
		xmlns:rdf="http://www.w3.org/1999/02/22-rdf-syntax-ns#"
		xmlns:svg="http://www.w3.org/2000/svg"
		xmlns:sodipodi="http://sodipodi.sourceforge.net/DTD/sodipodi-0.dtd"
		xmlns:inkscape="http://www.inkscape.org/namespaces/inkscape"
		xmlns="http://www.w3.org/2000/svg"
		version="1.1"
		width="1000"
		height="147.39349"
		viewBox="0 0 999.99997 147.3935"
		id="Layer_1"
		xml:space="preserve"
		sodipodi:docname="steinwurf_logo_special_s_vector (1).svg"
		inkscape:version="0.92.5 (2060ec1f9f, 2020-04-08)"><sodipodi:namedview
   pagecolor="#ffffff"
   bordercolor="#666666"
   borderopacity="1"
   objecttolerance="10"
   gridtolerance="10"
   guidetolerance="10"
   inkscape:pageopacity="0"
   inkscape:pageshadow="2"
   inkscape:window-width="1440"
   inkscape:window-height="1204"
   id="namedview14"
   showgrid="false"
   fit-margin-top="0"
   fit-margin-left="0"
   fit-margin-right="0"
   fit-margin-bottom="0"
   inkscape:zoom="0.6348467"
   inkscape:cx="371.65419"
   inkscape:cy="-350.84299"
   inkscape:window-x="1440"
   inkscape:window-y="1268"
   inkscape:window-maximized="0"
   inkscape:current-layer="Layer_1" />
	<metadata
			id="metadata33"><rdf:RDF><cc:Work
       rdf:about=""><dc:format>image/svg+xml</dc:format><dc:type
			rdf:resource="http://purl.org/dc/dcmitype/StillImage"/><dc:title></dc:title></cc:Work></rdf:RDF></metadata>
	<defs
			id="defs31"/>
	<rect
			style="opacity:1;fill:#ffffff;fill-opacity:0.75238097;stroke:none;stroke-width:3.77952766;stroke-linejoin:round;stroke-miterlimit:4;stroke-dasharray:none;stroke-dashoffset:0;stroke-opacity:1;paint-order:markers stroke fill"
			id="rect821"
			width="119.28835"
			height="105.30486"
			x="21.290924"
			y="21.725245"
			ry="8.8461494"
			rx="8.8461494"/>
	<path
			d="M 95.211872,2.411797 C 34.782282,1.350259 -4.4085617,54.362744 0.39754325,84.148273 5.9084835,118.31611 49.280072,154.00827 92.778786,146.34405 158.25313,134.81365 153.24584,70.904385 154.51834,45.751139 152.72273,18.624664 136.66558,7.368601 107.52937,3.400238 103.31846,2.826182 99.240508,2.482566 95.211872,2.411797 Z M 79.929045,24.91784 c 7.255467,0 14.033437,0.299269 20.301065,0.912409 6.27249,0.618001 11.7518,1.805348 16.42333,3.649626 4.67395,1.846712 8.30412,4.434299 10.94889,7.755463 2.64476,3.32116 3.95376,7.638667 3.95376,12.925768 v 2.96533 c 0,0.985398 -0.47689,1.837583 -1.52068,2.50911 -1.04866,0.676406 -2.32237,0.988446 -3.80169,0.988446 -1.72263,0 -3.13565,-0.316907 -4.18187,-0.988446 -1.0438,-0.669091 -1.52068,-1.535882 -1.52068,-2.50911 v -2.737229 c 0,-3.294399 -1.08819,-5.999383 -3.11739,-8.135636 -2.02676,-2.133813 -4.8017,-3.812036 -8.36374,-5.094271 -3.56933,-1.277374 -7.76519,-2.189777 -12.621629,-2.737226 -4.861308,-0.547438 -10.188545,-0.836362 -15.967127,-0.836362 -5.902667,0 -11.397181,0.175302 -16.499367,0.608265 -5.104608,0.433092 -9.462877,1.257901 -13.153867,2.433091 -3.688564,1.177611 -6.67153,2.870436 -8.819941,5.094268 -2.15328,2.223847 -3.193424,5.053523 -3.193424,8.515806 v 2.052915 c 0,4.328453 1.329076,7.58211 4.029801,9.808375 2.698289,2.226278 6.794391,3.642331 12.317492,4.257902 4.413621,0.493917 8.319334,0.879563 11.633196,1.064478 3.311426,0.184987 7.273105,0.334546 11.937333,0.456197 2.698287,0 5.166046,0.01743 7.375287,0.07615 2.206813,0.06344 4.377732,0.182567 6.462886,0.304126 2.082724,0.121549 4.164837,0.273726 6.310821,0.456212 2.143539,0.184988 4.593659,0.367392 7.299259,0.608271 3.43551,0.367391 6.79621,1.041969 10.11251,1.900851 3.31143,0.858878 6.2433,2.177607 8.81994,3.95376 2.57907,1.778585 4.6259,4.142323 6.15875,7.14719 1.53284,3.002431 2.35705,6.791353 2.35705,11.329058 V 98.7469 c 0,5.14598 -1.28588,9.5079 -3.8017,13.0018 -2.51825,3.49391 -6.13259,6.29379 -10.79681,8.43977 -4.66667,2.14112 -10.23904,3.62225 -16.80351,4.48601 -6.459845,0.83941 -13.739032,1.29258 -21.821742,1.29258 -7.364948,0 -14.220778,-0.29685 -20.605194,-0.91241 -6.384422,-0.61315 -12.015188,-1.80293 -16.803508,-3.64963 -4.783441,-1.84672 -8.569934,-4.42153 -11.329053,-7.67943 -2.759122,-3.25791 -4.105832,-7.55778 -4.105832,-12.84974 v -9.200113 c 0,-2.583936 1.864348,-3.877735 5.550481,-3.877735 3.812643,0 5.702543,1.29623 5.702543,3.877735 v 8.819943 c 0,3.44524 0.979318,6.29926 2.889291,8.51579 1.902671,2.20924 4.659964,3.95438 8.287697,5.24635 3.625303,1.29196 7.97079,2.25851 13.077841,2.81324 5.102178,0.55476 10.76154,0.76034 17.031601,0.76034 6.024321,0 11.650838,-0.20799 16.879537,-0.76034 5.221398,-0.55473 9.815068,-1.56446 13.686098,-3.04135 3.87348,-1.47444 6.89963,-3.48599 9.04804,-6.00668 2.15085,-2.51823 3.19343,-5.79561 3.19343,-9.732347 v -4.181868 c 0,-5.652057 -1.56265,-9.644753 -4.63807,-11.861297 -3.07542,-2.21167 -7.1849,-3.639897 -12.46957,-4.257901 -2.2141,-0.245738 -4.34488,-0.425787 -6.310808,-0.608261 -1.965934,-0.187409 -3.992699,-0.334559 -6.08272,-0.45621 -2.092447,-0.123971 -4.370429,-0.240678 -6.767017,-0.304135 -2.399025,-0.06102 -5.032234,-0.07615 -7.983569,-0.07615 -2.581502,0 -4.877119,-0.01259 -6.84305,-0.07615 -1.965937,-0.06341 -3.873474,-0.180121 -5.77858,-0.304123 -1.909973,-0.123971 -3.888682,-0.27129 -5.854614,-0.45621 -1.965934,-0.184964 -4.157538,-0.464096 -6.614956,-0.836357 -3.564469,-0.493915 -6.900232,-1.204381 -10.036476,-2.128944 -3.13625,-0.92457 -5.87834,-2.236609 -8.211669,-4.029786 -2.338197,-1.788324 -4.212887,-4.036497 -5.626512,-6.690987 -1.413622,-2.652069 -2.128948,-5.905103 -2.128948,-9.732349 v -1.672741 c 0,-5.06082 1.283451,-9.21471 3.801696,-12.545606 2.520679,-3.333324 6.034052,-5.992688 10.644752,-7.907528 4.613131,-1.91484 10.102782,-3.229307 16.49937,-4.029793 6.394146,-0.802921 13.570534,-1.216544 21.441566,-1.216544 z"
			id="path3"
			style="fill:#8dc63f;fill-opacity:1;stroke-width:0.99999988"
			inkscape:connector-curvature="0"/>

	<path
			d="m 190.77257,129.11415 c -5.41118,0 -9.65448,-0.6691 -12.72504,-2.02676 -3.07541,-1.3528 -5.41118,-3.10463 -7.00972,-5.25791 -1.59854,-2.14597 -2.5815,-4.5158 -2.94646,-7.09974 -0.36983,-2.58151 -0.55475,-5.16544 -0.55475,-7.74695 V 8.853999 c 0,-1.352795 0.48905,-2.333329 1.47446,-2.951333 0.98296,-0.613137 2.27493,-0.922138 3.87347,-0.922138 1.5961,0 2.88808,0.309001 3.87347,0.922138 0.98053,0.618004 1.47446,1.598538 1.47446,2.951333 v 98.128791 c 0,4.30656 0.9197,7.6253 2.76641,9.95862 1.84428,2.33577 5.28467,3.50609 10.33088,3.50609 h 21.94887 c 2.09002,0 3.13869,1.47444 3.13869,4.42578 0,2.83212 -1.04867,4.24087 -3.13869,4.24087 z m 0.36983,-87.428092 c -2.09245,0 -3.13867,-1.413625 -3.13867,-4.240865 0,-1.352805 0.21647,-2.428224 0.64719,-3.228707 0.42823,-0.798055 1.25791,-1.199514 2.48905,-1.199514 h 42.97561 c 1.2287,0 2.05839,0.401459 2.49147,1.199514 0.42823,0.800483 0.64721,1.875902 0.64721,3.228707 0,2.829681 -1.04866,4.240865 -3.13868,4.240865 z"
			id="path7"
			style="fill:#8dc63f;stroke-width:0.99999988"
			inkscape:connector-curvature="0"/>
	<path
			d="m 268.42452,78.946342 c 0,-2.827253 0.98058,-4.240871 2.95133,-4.240871 h 66.7712 c 1.8394,0 3.19465,-0.399026 4.05596,-1.199511 0.85883,-0.798055 1.29195,-2.243299 1.29195,-4.335761 v -7.74694 c 0,-7.37712 -3.3552,-13.00485 -10.05105,-16.878324 -6.70316,-3.873476 -17.49634,-5.810207 -32.37225,-5.810207 -14.75663,0 -25.5158,1.96593 -32.27976,5.890502 -6.76396,3.924561 -10.14594,9.508497 -10.14594,16.746934 v 39.019396 c 0,7.23843 3.32116,12.79318 9.9635,16.65934 6.63987,3.86375 17.4598,5.79805 32.4622,5.79805 6.27009,0 12.01698,-0.33333 17.24576,-1.00973 5.22382,-0.67153 9.68122,-1.80048 13.36977,-3.3893 3.6934,-1.58881 6.58151,-3.69829 8.66906,-6.32115 2.09007,-2.62529 3.13871,-5.82968 3.13871,-9.618 v -2.562031 c 0,-2.442812 1.81022,-3.664222 5.44285,-3.664222 3.50121,0 5.25542,1.228705 5.25542,3.688554 v 2.768849 c 0,5.0438 -1.23116,9.37712 -3.69585,13.00242 -2.4647,3.6326 -5.97561,6.61313 -10.53282,8.94645 -4.56203,2.33577 -10.10464,4.05596 -16.63015,5.16545 -6.53284,1.10705 -13.91964,1.65937 -22.17028,1.65937 -18.72501,0 -32.21165,-2.64478 -40.46711,-7.93186 -8.25543,-5.28467 -12.37952,-12.78588 -12.37952,-22.50119 V 61.053429 c 0,-9.710451 4.12651,-17.214091 12.37952,-22.50362 8.25546,-5.284658 21.7421,-7.929425 40.46711,-7.929425 18.72256,0 32.21162,2.644767 40.46227,7.929425 8.25783,5.289529 12.37949,12.793169 12.37949,22.50362 v 8.669089 c 0,4.673951 -1.16055,8.116765 -3.46953,10.330878 -2.31876,2.211677 -6.45016,3.318733 -12.38931,3.318733 h -66.7712 c -1.96833,0 -2.95133,-1.474458 -2.95133,-4.425787 z"
			id="path9"
			style="fill:#8dc63f;stroke-width:0.99999988"
			inkscape:connector-curvature="0"/>
	<path
			d="m 383.14938,26.377083 c -1.59852,0 -2.88808,-0.304137 -3.87348,-0.922139 -0.98537,-0.613139 -1.472,-1.596105 -1.472,-2.951335 V 4.058387 c 0,-1.474449 0.48663,-2.520676 1.472,-3.136247 C 380.2613,0.309002 381.55086,0 383.14938,0 c 3.56937,0 5.34794,1.355229 5.34794,4.058387 v 18.445222 c 0,2.583941 -1.77857,3.873474 -5.34794,3.873474 z m 0,103.479157 c -1.59852,0 -2.88808,-0.27738 -3.87348,-0.82725 -0.98537,-0.55719 -1.472,-1.6326 -1.472,-3.23114 V 40.396522 c 0,-1.47445 0.48663,-2.51824 1.472,-3.136247 0.9854,-0.613134 2.27496,-0.922136 3.87348,-0.922136 3.56937,0 5.34794,1.355225 5.34794,4.058383 v 85.398898 c 0,1.59854 -0.45739,2.67396 -1.38198,3.23114 -0.92216,0.5523 -2.24332,0.82968 -3.96596,0.82968 z"
			id="path11"
			style="fill:#8dc63f;stroke-width:0.99999988"
			inkscape:connector-curvature="0"/>
	<path
			d="m 422.06662,33.019405 h 66.4014 c 22.50602,0 33.759,10.143535 33.759,30.433049 v 62.345396 c 0,1.59854 -0.46225,2.67395 -1.3844,3.23114 -0.92458,0.5523 -2.24332,0.82725 -3.9659,0.82725 -1.59852,0 -2.89053,-0.27738 -3.87593,-0.82725 -0.98056,-0.55719 -1.47203,-1.6326 -1.47203,-3.23114 V 64.192114 c 0,-7.9927 -1.81508,-13.742081 -5.44036,-17.245722 -3.63019,-3.503646 -9.50119,-5.257901 -17.61796,-5.257901 h -61.97318 v 84.109359 c 0,1.59854 -0.4598,2.67395 -1.38443,3.23114 -0.91968,0.5523 -2.24573,0.82725 -3.9659,0.82725 -1.59854,0 -2.89055,-0.27738 -3.87348,-0.82725 -0.98542,-0.55719 -1.47206,-1.6326 -1.47206,-3.23114 V 38.182412 c -0.002,-3.440387 2.08518,-5.163007 6.26523,-5.163007 z"
			id="path13"
			style="fill:#8dc63f;stroke-width:0.99999988"
			inkscape:connector-curvature="0"/>
	<path
			d="m 679.98594,32.46466 c 3.5644,0 5.34304,1.291972 5.34304,3.873479 v 62.347834 c 0,20.287077 -11.18732,30.430607 -33.56687,30.430607 h -71.75413 c -22.50118,0 -33.75182,-10.1411 -33.75182,-30.430607 V 36.338139 c 0,-2.581507 1.77862,-3.873479 5.34796,-3.873479 1.59613,0 2.89053,0.309002 3.87595,0.922142 0.98049,0.618004 1.47438,1.600975 1.47438,2.951337 v 61.790653 c 0,14.883188 8.29926,22.321128 24.89781,22.321128 h 68.24808 c 8.48418,0 14.69342,-1.90266 18.6277,-5.72018 3.93426,-3.80534 5.90508,-9.34548 5.90508,-16.600948 V 36.338139 c 0,-1.352795 0.48907,-2.333333 1.47447,-2.951337 0.98785,-0.61314 2.27983,-0.922142 3.87835,-0.922142 z m -63.91722,78.39647 c -1.69094,0 -3.01946,-0.309 -3.99021,-0.92457 -0.96353,-0.61558 -1.45014,-1.66424 -1.45014,-3.13868 V 35.97074 c 0,-1.476884 0.48419,-2.518251 1.45014,-3.13625 0.96833,-0.613139 2.29685,-0.922144 3.99021,-0.922144 3.5037,0 5.26033,1.355238 5.26033,4.058394 v 70.82714 c 0,2.7056 -1.75663,4.06325 -5.26033,4.06325 z"
			id="path15"
			style="fill:#8dc63f;stroke-width:0.99999988"
			inkscape:connector-curvature="0"/>
	<path
			d="m 715.02724,32.46466 c 1.59613,0 2.89051,0.309002 3.87349,0.922142 0.9805,0.618004 1.4744,1.600975 1.4744,2.951337 v 62.347834 c 0,14.508497 8.30415,21.763947 24.90512,21.763947 h 57.72982 V 36.338139 c 0,-1.352795 0.49389,-2.333333 1.47685,-2.951337 0.9805,-0.61314 2.33341,-0.922142 4.056,-0.922142 1.72014,0 3.07302,0.309002 4.05837,0.922142 0.98537,0.618004 1.47685,1.600975 1.47685,2.951337 v 87.615431 c 0,3.44282 -2.09244,5.16301 -6.27249,5.16301 h -64.37213 c -22.50604,0 -33.75663,-10.1411 -33.75663,-30.430607 V 36.338139 c 0,-2.581507 1.78583,-3.873479 5.35035,-3.873479 z"
			id="path17"
			style="fill:#8dc63f;stroke-width:0.99999988"
			inkscape:connector-curvature="0"/>
	<path
			d="m 845.06349,129.85624 c -1.72498,0 -3.04372,-0.27738 -3.96588,-0.82725 -0.92217,-0.55719 -1.38198,-1.6326 -1.38198,-3.23114 V 63.452454 c 0,-20.289514 11.25052,-30.433049 33.75656,-30.433049 h 36.15087 c 1.22869,0 2.08513,0.40146 2.58147,1.199512 0.48663,0.800483 0.73968,1.875912 0.73968,3.228712 0,2.829678 -1.10704,4.240862 -3.31873,4.240862 h -34.3114 c -16.5985,0 -24.90019,7.2579 -24.90019,21.763963 v 62.345396 c 0,1.59854 -0.49389,2.67395 -1.47442,3.23114 -0.99034,0.54987 -2.27743,0.82725 -3.87598,0.82725 z"
			id="path19"
			style="fill:#8dc63f;stroke-width:0.99999988"
			inkscape:connector-curvature="0"/>
	<path
			d="m 933.04639,129.85624 c -1.72506,0 -3.04625,-0.2798 -3.97084,-0.82725 -0.92213,-0.55719 -1.37954,-1.63503 -1.37954,-3.23357 V 31.03157 c 0,-20.318693 11.25301,-30.479259 33.75418,-30.479259 h 35.416 c 2.0876,0 3.13381,1.447686 3.13381,4.335759 0,2.890505 -1.04621,4.335759 -3.13381,4.335759 h -35.416 c -7.5012,0 -13.22138,1.875909 -17.15324,5.625293 -3.93677,3.751818 -5.90752,9.43794 -5.90752,17.060798 v 93.8855 c 0,1.59854 -0.48906,2.67396 -1.47445,3.23114 -0.98298,0.5523 -2.27494,0.82968 -3.86859,0.82968 z m 18.25784,-88.170182 c -2.08997,0 -3.1314,-1.413625 -3.1314,-4.240865 0,-1.352805 0.21065,-2.428224 0.64482,-3.228707 0.42823,-0.798055 1.26029,-1.199514 2.48658,-1.199514 h 41.68851 c 1.22627,0 2.05593,0.401459 2.48903,1.199514 0.4307,0.800483 0.64721,1.875902 0.64721,3.228707 0,2.829681 -1.04867,4.240865 -3.13624,4.240865 z"
			id="path21"
			style="fill:#8dc63f;stroke-width:0.99999988"
			inkscape:connector-curvature="0"/>



</svg>
